<?xml version="1.0" standalone="no"?>
<!DOCTYPE svg PUBLIC "-//W3C//DTD SVG 20010904//EN"
 "http://www.w3.org/TR/2001/REC-SVG-20010904/DTD/svg10.dtd">
<svg version="1.0" xmlns="http://www.w3.org/2000/svg"
 width="1024.000000pt" height="1024.000000pt" viewBox="0 0 1024.000000 1024.000000"
 preserveAspectRatio="xMidYMid meet">
<metadata>
Created by potrace 1.14, written by Peter Selinger 2001-2017
</metadata>
<g transform="translate(0.000000,1024.000000) scale(0.100000,-0.100000)"
fill="#000000" stroke="none">
<path d="M5054 9780 c-11 -4 -26 -23 -33 -42 -36 -95 -39 -99 -72 -94 -38 6
-65 29 -74 63 -13 52 -29 58 -144 55 -91 -3 -109 -6 -128 -24 -12 -12 -20 -25
-17 -29 3 -5 0 -9 -5 -9 -7 0 -9 -28 -5 -82 2 -46 6 -107 8 -137 4 -55 15 -71
52 -71 11 0 24 -3 28 -7 4 -4 15 -8 24 -8 17 0 24 -17 39 -90 7 -34 14 -43 50
-59 84 -39 54 -79 -65 -85 -7 -1 -22 -21 -34 -46 -19 -39 -46 -60 -49 -37 -2
27 -11 58 -17 64 -14 14 -168 13 -191 -1 -8 -5 -17 -29 -20 -53 -4 -31 -11
-44 -25 -46 -11 -3 -16 0 -12 7 4 6 3 11 -2 11 -6 0 -15 14 -21 30 -9 28 -13
30 -64 30 -90 0 -137 -28 -137 -81 0 -27 -26 -13 -40 22 -7 16 -16 30 -21 30
-5 1 -26 2 -46 3 -68 2 -78 26 -30 70 24 23 28 35 29 96 1 3 -2 17 -6 32 -6
25 -3 27 57 45 l62 19 -1 59 c-1 68 -9 111 -30 173 -7 23 -14 50 -14 60 0 35
-16 45 -73 43 -62 -1 -185 -27 -204 -43 -7 -6 -13 -29 -13 -53 0 -78 -69 -102
-122 -43 -15 17 -28 35 -28 39 0 4 -11 14 -24 23 -23 15 -30 14 -88 -4 -35
-11 -73 -20 -85 -20 -12 0 -24 -4 -28 -10 -3 -5 -12 -7 -20 -3 -8 3 -15 0 -15
-7 0 -6 -4 -9 -10 -5 -16 10 -42 -42 -38 -76 2 -27 -2 -35 -22 -46 -14 -7 -40
-13 -57 -13 -28 0 -35 5 -51 38 -18 39 -24 41 -102 27 -19 -3 -46 -8 -60 -10
-42 -7 -54 -10 -92 -29 -21 -10 -38 -25 -38 -34 0 -28 42 -157 54 -164 6 -4 8
-8 4 -8 -9 0 41 -100 58 -117 8 -9 20 -10 35 -5 43 16 63 3 98 -64 27 -53 39
-66 63 -71 16 -3 32 -12 35 -19 6 -17 -18 -50 -37 -49 -8 0 -21 -5 -28 -12 -7
-7 -20 -13 -28 -13 -14 0 -17 -11 -16 -67 0 -28 -3 -33 -24 -33 -17 0 -30 9
-42 30 -21 36 -42 44 -90 34 -21 -4 -41 -7 -45 -6 -4 1 -13 -2 -20 -8 -7 -6
-20 -16 -30 -23 -10 -7 -20 -28 -22 -47 -2 -19 -4 -38 -4 -42 -2 -16 -20 -7
-49 21 -34 35 -68 35 -112 2 -16 -11 -33 -21 -37 -21 -15 -1 -44 -51 -43 -73
5 -53 -16 -65 -42 -26 -12 19 -23 22 -78 20 -35 -1 -72 1 -82 5 -28 8 -21 34
12 46 41 14 48 48 21 106 -25 56 -23 74 9 100 24 19 24 22 12 68 -16 60 -89
208 -114 230 -16 15 -26 13 -130 -22 -137 -46 -157 -63 -147 -119 4 -22 3 -47
-2 -56 -25 -47 -119 -67 -139 -30 -19 36 -39 50 -67 45 -15 -3 -31 -11 -35
-17 -4 -7 -8 -8 -8 -4 0 5 -17 0 -37 -11 -21 -10 -65 -32 -98 -49 -78 -39 -88
-63 -54 -135 28 -61 87 -153 119 -187 18 -19 30 -22 58 -17 19 3 44 1 54 -5
21 -12 61 -49 52 -49 -9 0 20 -26 43 -38 12 -7 31 -12 42 -12 12 0 24 -11 33
-30 7 -16 16 -30 20 -30 5 0 7 -3 6 -7 -1 -5 15 -43 35 -86 20 -42 37 -80 37
-83 0 -3 12 -31 26 -62 15 -31 38 -86 51 -122 14 -36 28 -69 33 -75 4 -5 11
-21 15 -34 4 -13 14 -39 21 -58 8 -18 14 -35 15 -38 0 -2 30 -64 66 -137 62
-125 67 -138 70 -213 2 -44 6 -90 9 -102 4 -23 56 -58 68 -46 3 4 6 1 6 -5 0
-7 7 -12 17 -12 9 0 13 -3 10 -7 -4 -3 -2 -11 3 -18 5 -6 12 -22 14 -36 3 -13
5 -24 7 -24 1 0 3 -10 4 -21 3 -26 36 -73 52 -74 6 0 19 -7 27 -16 14 -14 16
-181 15 -1632 0 -889 3 -1642 7 -1672 3 -30 13 -91 20 -135 8 -44 16 -91 18
-105 9 -64 69 -281 84 -305 4 -5 7 -14 8 -20 4 -18 51 -139 78 -197 14 -31 30
-68 36 -82 5 -14 13 -26 18 -26 4 0 8 -8 9 -17 1 -10 4 -27 6 -38 3 -11 6 -24
6 -28 1 -5 7 -5 14 -1 9 6 9 5 0 -8 -7 -8 -12 -17 -10 -19 1 -2 -3 1 -9 8 -6
6 -16 8 -23 3 -11 -6 -11 -9 0 -13 11 -4 11 -6 1 -6 -7 -1 -11 -5 -7 -11 3 -5
13 -6 23 -3 9 3 14 3 11 -1 -10 -11 -50 -16 -44 -5 4 5 2 9 -4 9 -6 0 -9 6 -7
13 1 6 1 9 -1 4 -3 -4 -9 -4 -15 -1 -6 4 -6 -2 1 -14 15 -28 -10 -44 -67 -44
-21 0 -22 -1 -5 -13 10 -8 14 -17 9 -22 -5 -4 -11 -2 -13 5 -3 8 -12 0 -23
-20 -17 -31 -17 -34 -2 -47 16 -13 16 -13 0 -8 -9 3 -24 -1 -35 -9 -17 -14
-16 -14 5 -4 15 7 22 7 22 0 0 -5 -5 -10 -12 -10 -6 0 -3 -7 8 -15 11 -9 13
-13 4 -10 -18 6 -45 -31 -30 -40 6 -4 9 -1 8 6 -2 6 4 14 12 16 9 3 11 1 5 -4
-16 -13 -17 -34 -3 -52 10 -13 10 -14 -2 -4 -19 17 -33 16 -27 -1 4 -11 1 -13
-10 -9 -21 8 -48 35 -56 57 -4 9 -11 14 -17 11 -5 -3 -10 -1 -10 4 0 6 0 13 0
16 0 3 -9 14 -20 25 -18 18 -45 71 -71 137 -6 16 -15 64 -19 108 -5 44 -11 91
-15 105 -4 14 -8 36 -9 50 -2 14 -5 32 -8 40 -3 8 -16 48 -28 89 -36 111 -151
325 -201 371 -9 8 -18 20 -20 27 -2 7 -38 50 -80 95 -67 74 -139 168 -139 182
0 8 -99 154 -123 182 -28 32 -103 84 -123 84 -7 0 -14 5 -14 10 0 6 -9 10 -20
10 -11 0 -20 5 -20 10 0 6 -6 10 -14 10 -8 0 -18 4 -21 10 -4 7 3 7 19 0 14
-5 26 -6 26 -2 0 4 5 0 10 -8 6 -9 10 -10 10 -3 0 6 -5 15 -10 18 -6 4 -8 11
-5 16 4 5 2 9 -4 9 -11 0 -9 19 4 40 8 13 7 13 -8 1 -12 -10 -17 -10 -17 -2 0
8 -6 7 -16 -3 -21 -21 -30 -20 -13 1 12 15 12 16 -3 10 -10 -3 -17 -3 -17 1 4
22 -2 32 -14 26 -9 -6 -9 -4 1 8 10 13 10 18 1 24 -8 5 -9 3 -4 -6 5 -9 4 -11
-4 -6 -25 16 2 22 106 23 59 1 128 8 153 14 65 18 150 74 191 128 32 40 90
137 88 144 -1 1 6 19 15 41 9 21 16 44 16 52 0 7 4 15 9 18 5 4 12 25 16 49 4
23 12 48 18 55 5 7 7 15 4 19 -4 3 -3 11 1 17 5 6 17 43 27 81 10 39 24 82 31
96 7 15 10 30 6 33 -3 4 -2 10 3 14 30 21 50 162 25 177 -6 4 -8 11 -5 16 10
16 -63 115 -127 170 -33 30 -71 64 -84 77 -13 13 -24 20 -24 17 0 -4 -11 7
-25 23 -14 17 -25 32 -25 35 0 7 97 66 113 70 7 1 14 4 17 7 3 3 24 14 47 24
54 24 119 82 134 121 14 36 13 71 -7 195 -9 52 -18 113 -20 135 -6 54 -14 124
-19 155 -2 14 -6 45 -9 70 -7 59 -34 157 -53 194 -32 62 -132 133 -215 152
-43 11 -148 11 -148 1 0 -6 -3 -8 -6 -4 -13 13 -152 -40 -202 -78 -43 -32 -82
-77 -88 -102 -3 -15 -10 -43 -14 -60 -5 -21 -5 -33 2 -33 5 0 8 -8 5 -17 -4
-21 36 -140 64 -190 26 -47 24 -61 -17 -113 -29 -36 -59 -88 -69 -120 -25 -79
-29 -116 -40 -384 -3 -70 -8 -133 -12 -140 -4 -6 -8 -17 -9 -26 -3 -16 -11
-52 -14 -60 -1 -3 -2 -8 -2 -12 1 -3 -5 -12 -13 -18 -23 -19 -18 -54 16 -96
37 -48 101 -104 111 -97 5 2 8 0 8 -6 0 -6 15 -18 33 -27 17 -9 35 -21 38 -26
3 -5 8 -8 10 -7 6 4 140 -87 181 -123 62 -55 46 -62 -144 -61 -90 0 -190 5
-223 11 -33 6 -85 12 -115 13 -30 1 -59 4 -64 7 -22 12 -247 18 -341 9 -22 -2
-53 -9 -70 -16 -16 -6 -36 -14 -43 -16 -7 -3 -15 -13 -19 -22 -6 -17 -42 -73
-53 -83 -12 -11 -90 -140 -90 -149 0 -5 -3 -11 -7 -13 -5 -1 -39 -49 -77 -105
-38 -57 -72 -103 -76 -103 -4 0 -13 -11 -20 -25 -7 -13 -17 -22 -22 -19 -4 3
-8 -2 -8 -10 0 -9 -4 -16 -10 -16 -5 0 -10 -8 -10 -18 0 -10 -3 -21 -6 -25 -3
-3 -7 -29 -9 -59 -1 -29 -6 -69 -10 -88 -4 -19 -8 -55 -9 -80 0 -25 -5 -51 -9
-58 -8 -13 -12 -223 -4 -252 16 -62 23 -77 44 -100 42 -44 73 -117 87 -205 2
-16 8 -50 11 -75 9 -54 31 -112 61 -161 28 -45 76 -69 189 -94 25 -6 122 -45
207 -83 68 -32 162 -61 212 -67 17 -2 41 -6 53 -9 13 -3 25 -1 28 3 2 5 17 7
32 5 55 -6 152 62 153 108 0 9 5 18 10 20 21 7 41 151 39 275 -2 110 0 125 17
141 18 17 75 22 127 10 22 -5 48 -42 42 -60 -6 -18 -16 -79 -18 -105 0 -13 -4
-23 -7 -23 -13 0 -32 -167 -36 -310 -4 -120 -1 -164 16 -245 11 -55 22 -104
24 -110 11 -32 21 -53 41 -80 21 -29 49 -90 51 -110 0 -5 6 -23 12 -38 7 -16
12 -34 12 -41 0 -29 43 -182 54 -188 6 -4 8 -8 3 -8 -16 0 34 -77 82 -127 29
-29 51 -62 51 -73 0 -39 55 -133 113 -194 31 -33 57 -64 57 -68 0 -5 5 -8 10
-8 6 0 30 -19 53 -42 24 -24 61 -58 83 -76 48 -41 124 -132 124 -149 0 -26 75
-103 208 -216 57 -48 106 -87 111 -87 4 0 16 -8 27 -18 24 -21 80 -59 164
-107 36 -21 81 -48 100 -61 19 -12 96 -57 170 -100 74 -43 166 -98 205 -122
57 -37 205 -106 250 -116 6 -2 21 -8 35 -13 14 -6 54 -20 90 -33 36 -12 72
-25 80 -27 8 -3 22 -7 30 -9 8 -1 42 -12 74 -23 33 -12 67 -21 77 -21 10 0 30
-5 46 -12 15 -6 31 -11 34 -10 4 1 22 -3 40 -9 48 -14 63 -17 159 -34 154 -26
214 -32 390 -39 41 -2 75 -4 75 -6 0 -1 14 -3 30 -4 17 -1 41 -9 55 -17 28
-16 293 -19 405 -5 33 4 76 9 95 10 19 2 60 13 90 25 87 34 137 42 265 42 81
-1 136 4 170 15 51 16 72 21 111 30 12 2 53 14 90 26 38 12 78 23 88 25 11 2
25 8 31 13 7 5 15 7 18 3 4 -3 12 -1 19 4 7 6 38 18 69 27 31 9 69 22 84 30
16 8 32 13 37 10 4 -3 8 0 8 6 0 7 7 10 15 6 8 -3 15 -1 15 4 0 6 3 9 8 8 6
-1 52 17 112 44 14 6 27 12 30 13 3 0 37 16 75 35 39 19 73 33 78 32 4 -1 7 2
7 7 0 5 8 11 18 15 41 13 87 48 159 121 85 84 133 116 203 136 37 11 135 77
210 142 8 8 33 27 55 43 42 31 80 61 101 81 7 7 16 13 20 13 7 0 132 126 173
175 21 25 43 79 56 135 2 8 4 16 5 18 2 1 3 6 4 11 0 5 16 30 33 55 18 26 34
49 35 53 2 4 31 35 66 69 34 34 62 65 62 70 0 5 14 20 30 33 39 30 106 145
119 201 5 23 14 47 20 53 6 6 11 19 11 28 0 10 3 19 8 21 10 4 52 90 52 106 0
6 5 12 11 12 5 0 8 4 5 8 -3 5 1 20 9 35 8 15 11 27 8 27 -3 0 0 6 6 13 6 8
12 22 14 33 2 10 7 26 10 34 10 26 36 124 41 155 2 17 5 30 6 30 12 0 21 394
10 410 -3 6 -7 24 -8 40 -1 17 -11 62 -21 100 -18 63 -18 72 -5 93 19 29 56
43 116 44 78 2 90 -22 68 -143 -18 -105 -20 -129 -10 -129 6 0 10 -10 10 -21
0 -29 42 -149 52 -149 4 0 8 -6 8 -12 0 -21 52 -73 91 -91 27 -12 53 -15 115
-11 43 3 90 8 104 11 14 3 32 7 40 9 8 1 26 5 40 9 14 4 35 7 48 8 12 1 22 4
22 7 0 4 6 7 13 7 9 1 161 37 237 57 8 3 18 5 22 5 16 2 109 102 103 111 -3 6
-3 10 2 10 4 0 17 21 27 48 10 26 26 55 34 65 8 9 12 17 8 17 -4 0 4 19 17 42
45 81 125 295 133 353 15 115 24 213 24 260 0 33 -7 140 -10 140 -1 0 -3 10
-6 22 -8 46 -47 136 -80 184 -19 28 -34 54 -34 58 0 3 -13 21 -29 39 -17 17
-28 32 -26 32 5 0 -3 10 -48 63 -10 12 -38 60 -61 107 -63 127 -76 147 -132
207 -17 18 -36 33 -43 33 -6 0 -11 4 -11 8 0 31 -189 42 -365 21 -49 -5 -116
-11 -147 -11 -32 -1 -58 -4 -58 -7 0 -4 -44 -6 -97 -6 -54 0 -117 -2 -140 -6
-27 -3 -44 -2 -47 5 -3 8 -5 8 -5 0 -1 -7 -16 -9 -46 -4 -24 4 -56 6 -70 4
-19 -2 -25 2 -25 16 0 26 10 50 22 50 5 0 23 14 41 30 18 17 40 33 50 36 9 3
17 10 17 15 0 5 4 9 10 9 5 0 33 15 62 33 29 18 74 44 101 57 67 35 126 90
133 125 8 37 13 307 6 319 -3 5 -7 23 -8 40 -2 17 -5 47 -8 66 -7 41 -14 92
-25 175 -5 36 -20 82 -38 115 -28 49 -31 63 -28 130 1 41 3 77 5 80 1 3 3 10
5 15 1 6 3 13 5 18 1 4 4 16 5 27 1 11 3 21 5 23 1 1 3 9 5 17 2 8 8 35 14 60
17 71 14 167 -6 203 -17 28 -77 96 -88 97 -3 1 -24 10 -48 20 -71 32 -186 45
-270 31 -86 -14 -167 -39 -167 -52 0 -5 -8 -9 -17 -9 -40 -1 -94 -113 -99
-205 -7 -114 -13 -191 -19 -215 -16 -65 -37 -302 -31 -343 8 -55 43 -94 113
-129 57 -28 113 -79 113 -102 0 -21 -62 -84 -108 -111 -17 -11 -32 -23 -32
-27 0 -4 -6 -8 -14 -8 -8 0 -36 -22 -63 -49 l-49 -49 2 -139 c1 -76 4 -147 7
-158 3 -11 15 -62 26 -114 12 -51 26 -101 31 -111 5 -10 6 -20 3 -24 -3 -3 -1
-6 6 -6 6 0 11 -6 10 -12 -1 -7 2 -24 8 -38 6 -14 19 -50 31 -80 11 -30 30
-76 42 -102 11 -26 21 -51 22 -55 6 -34 60 -112 93 -136 43 -30 86 -51 98 -49
4 1 7 -3 7 -10 0 -6 3 -8 7 -5 3 4 11 3 17 -2 11 -9 80 -25 151 -37 52 -8 241
-8 280 1 61 13 389 18 443 6 56 -12 67 -19 96 -63 42 -65 14 -281 -56 -428
-27 -57 -112 -205 -121 -211 -5 -3 -9 -10 -9 -15 -1 -5 -7 -19 -15 -30 -7 -12
-18 -50 -24 -85 -14 -95 -28 -115 -88 -125 -32 -6 -141 77 -141 106 0 6 -4 10
-9 10 -21 0 -58 172 -66 300 -8 154 -23 201 -77 242 -16 13 -36 29 -44 36 -8
7 -14 11 -14 7 0 -3 -10 0 -22 6 -24 13 -156 20 -163 8 -3 -4 -16 -10 -31 -13
-46 -12 -92 -60 -132 -136 -66 -125 -125 -198 -329 -407 -90 -92 -163 -171
-164 -177 0 -6 -3 -20 -5 -31 -2 -11 -5 -65 -5 -120 0 -55 -5 -105 -11 -112
-5 -7 -7 -16 -4 -21 3 -5 1 -24 -5 -43 -5 -19 -12 -41 -14 -50 -2 -9 -14 -38
-26 -65 -13 -27 -22 -52 -21 -57 3 -12 -16 -8 -22 6 -3 6 -3 2 -1 -10 3 -12 1
-24 -5 -28 -6 -3 -8 -10 -5 -15 3 -4 -5 -5 -17 -2 -19 5 -20 7 -5 10 18 4 24
32 7 32 -5 0 -10 -5 -10 -11 0 -5 -5 -7 -11 -3 -6 3 -7 9 -3 13 14 9 16 39 4
46 -8 5 -8 11 0 20 10 12 7 12 -14 2 -23 -11 -26 -22 -5 -22 15 0 11 -19 -5
-21 -9 -1 -14 3 -13 9 1 7 -6 11 -15 9 -20 -3 -23 6 -7 28 9 13 10 12 5 -3 -4
-11 -2 -16 5 -12 6 4 8 13 5 21 -3 7 -1 16 4 19 6 4 10 12 10 18 0 8 -4 7 -9
-2 -5 -8 -15 -16 -23 -17 -7 -1 -22 -5 -33 -9 -16 -6 -17 -5 -5 4 11 8 12 11
2 11 -7 0 -10 5 -6 11 5 8 9 8 14 -1 5 -8 10 -8 14 -2 7 12 -22 25 -36 15 -6
-3 -8 -1 -4 5 3 5 1 12 -6 14 -8 3 -8 9 -1 22 7 13 13 15 17 7 9 -14 26 -15
26 -1 0 6 -6 9 -12 8 -7 -2 -12 3 -10 11 2 11 0 12 -11 3 -10 -9 -16 -9 -25 0
-17 17 -15 33 2 19 10 -9 16 -8 26 4 7 8 17 12 24 8 6 -3 6 0 -1 7 -11 12 -15
11 -26 -4 -13 -17 -14 -17 -29 7 -13 19 -14 27 -5 37 10 10 8 10 -9 0 -23 -14
-29 -41 -7 -33 7 3 13 0 13 -7 0 -6 -5 -8 -12 -4 -13 8 -3 -11 18 -36 9 -11
10 -20 3 -30 -9 -13 -10 -12 -5 2 3 11 -3 23 -17 33 -12 8 -18 15 -13 15 5 0
2 7 -5 16 -17 20 -20 44 -6 41 5 -1 11 9 12 23 1 14 8 36 15 50 7 14 12 25 11
25 -3 0 5 21 30 80 39 95 116 355 125 420 2 17 6 49 9 72 2 24 7 55 10 70 5
27 9 574 20 2418 2 451 5 839 5 861 0 37 4 44 38 66 21 14 48 41 61 60 13 19
48 47 79 63 67 35 83 67 86 174 2 72 6 83 74 221 40 80 72 151 72 157 0 6 4
13 8 15 8 3 54 96 61 123 2 6 12 22 23 38 11 15 16 27 11 27 -4 0 -3 4 2 8 6
4 22 32 37 62 14 30 55 114 89 185 35 72 67 133 73 137 5 4 24 5 42 3 33 -3
57 15 108 79 18 23 27 27 42 21 25 -11 60 -13 73 -6 15 10 141 260 141 281 0
11 -14 25 -37 35 -20 10 -55 37 -79 61 -48 50 -77 55 -120 22 -16 -12 -31 -25
-34 -29 -3 -4 -21 -16 -41 -27 l-36 -20 -34 26 c-64 50 -89 85 -70 97 9 5 9
61 0 68 -60 47 -153 96 -198 103 -23 4 -41 11 -41 16 0 5 -9 4 -20 -2 -19 -10
-106 -170 -92 -170 4 0 2 -4 -4 -8 -13 -9 -34 -68 -34 -97 0 -13 10 -29 22
-37 22 -15 25 -34 14 -135 -3 -29 -2 -53 3 -53 4 0 13 -11 19 -24 15 -33 -8
-54 -41 -39 -36 17 -76 6 -122 -31 l-43 -36 -4 24 c-3 13 -1 31 4 40 5 9 5 23
-1 34 -9 18 -87 62 -119 67 -22 3 -62 -18 -85 -45 -28 -33 -39 -20 -42 48 -2
78 -16 94 -88 100 -47 4 -57 1 -76 -19 -11 -12 -21 -28 -21 -35 0 -14 -55 -38
-68 -30 -5 3 -10 26 -9 50 1 53 -12 70 -70 97 -23 11 -43 26 -43 34 0 8 25 26
54 40 38 18 62 38 77 63 31 50 35 52 101 47 61 -4 71 2 82 47 3 15 10 37 15
50 5 13 9 26 10 31 0 4 7 20 15 36 9 16 12 31 9 35 -4 3 -1 6 6 6 9 0 12 10 9
30 -3 17 -1 30 4 30 15 0 -1 52 -23 76 -11 12 -27 20 -35 17 -8 -3 -14 -1 -14
5 0 6 -8 9 -17 7 -10 -1 -26 2 -35 7 -10 4 -45 9 -79 9 -58 1 -63 0 -93 -35
-29 -34 -33 -36 -62 -26 -35 12 -52 41 -48 83 4 36 -29 54 -162 87 -100 25
-100 25 -120 5 -10 -11 -24 -32 -31 -46 -9 -22 -18 -27 -51 -27 -44 -1 -59 17
-66 75 -6 54 -14 59 -158 89 -5 1 -9 2 -10 4 -2 1 -10 3 -18 5 -51 10 -78 11
-98 4 -25 -10 -55 -69 -55 -111 -1 -16 -4 -28 -9 -28 -13 0 -8 -160 6 -170 67
-55 83 -82 81 -150 0 -26 7 -41 27 -58 25 -21 31 -53 13 -71 -4 -3 -38 -5 -75
-4 -77 2 -100 -10 -100 -53 0 -17 -5 -24 -20 -24 -16 0 -20 7 -20 30 0 17 -6
40 -12 53 -7 12 -13 23 -14 25 -1 1 -28 5 -61 8 l-61 6 -40 -41 c-44 -46 -71
-53 -73 -18 -1 12 -1 26 0 30 3 19 -23 50 -54 63 -80 33 -168 7 -173 -51 -3
-36 -9 -45 -32 -45 -13 0 -21 9 -25 25 -3 14 -7 36 -10 50 -4 20 -12 25 -38
26 -80 2 -114 21 -102 59 4 12 9 19 13 16 3 -3 12 0 21 8 9 8 21 14 26 14 19
-1 32 43 28 93 -3 35 -1 49 9 50 47 3 88 10 110 18 24 9 26 15 32 98 3 48 7
102 9 118 5 46 -20 112 -46 120 -23 7 -32 8 -169 20 -84 7 -87 7 -112 -18 -17
-17 -26 -37 -26 -57 0 -30 -6 -34 -45 -31 -36 3 -41 4 -51 15 -11 12 -12 15
-20 55 -8 39 -34 49 -139 54 -49 2 -97 7 -105 10 -8 3 -24 2 -36 -3z m-280
-136 c9 -24 -2 -30 -24 -16 -11 7 -19 9 -18 5 2 -13 -14 -43 -23 -43 -4 0 -6
8 -3 18 5 16 5 16 -6 0 -17 -27 -29 -22 -24 9 7 40 12 43 54 43 26 0 40 -5 44
-16z m867 -3 c7 11 9 11 9 -2 0 -29 -26 -29 -27 0 0 17 1 19 4 7 4 -15 7 -16
14 -5z m-31 -5 c0 -8 -7 -17 -16 -20 -8 -3 -12 -2 -9 4 3 6 1 10 -4 10 -6 0
-11 -4 -11 -10 0 -5 -4 -10 -10 -10 -5 0 -10 7 -10 16 0 8 4 13 8 10 4 -2 14
-1 22 5 21 13 30 11 30 -5z m66 -6 c0 -12 -4 -16 -9 -11 -5 5 -6 14 -3 20 10
15 12 14 12 -9z m-965 -57 c8 -10 9 -14 2 -10 -6 4 -14 3 -18 -3 -3 -5 -1 -10
5 -10 6 0 8 -4 5 -10 -3 -5 -11 -10 -16 -10 -6 0 -7 5 -4 10 3 6 1 10 -4 10
-13 0 -10 22 4 32 13 10 10 11 26 -9z m-737 -5 c-5 -9 -2 -8 10 1 15 12 19 12
34 -4 14 -14 14 -16 2 -13 -8 3 -27 1 -42 -3 -16 -4 -28 -6 -28 -4 0 13 14 35
22 35 5 0 6 -6 2 -12z m-30 -13 c-4 -8 -10 -12 -15 -9 -11 6 -2 24 11 24 5 0
7 -7 4 -15z m2618 -23 c6 -6 6 -12 -3 -18 -7 -4 -14 -3 -17 4 -5 15 -32 16
-32 1 0 -5 4 -8 8 -5 5 3 9 0 9 -7 0 -7 -13 -13 -29 -12 -33 0 -34 3 -10 22
15 13 15 13 -5 3 -25 -12 -25 -13 -14 -82 8 -49 2 -58 -28 -39 -9 6 -11 16 -5
32 11 32 11 35 13 67 1 19 9 32 24 40 26 12 74 9 89 -6z m844 -225 c4 -4 2 -7
-5 -7 -8 0 -11 -7 -7 -15 3 -8 1 -15 -4 -15 -6 0 -10 4 -10 9 0 5 -7 12 -16
15 -14 5 -15 4 -4 -9 8 -9 8 -15 2 -15 -6 0 -13 4 -17 10 -3 5 -12 7 -21 3
-16 -6 -16 17 1 29 11 8 72 4 81 -5z m-29 -69 c-3 -8 -6 -5 -6 6 -1 11 2 17 5
13 3 -3 4 -12 1 -19z m-10 -53 c0 -8 -4 -12 -9 -9 -5 3 -6 10 -3 15 9 13 12
11 12 -6z m-5024 -87 c-2 -5 1 -8 7 -8 7 0 10 -7 7 -15 -4 -8 -2 -17 3 -20 6
-4 10 -11 10 -16 0 -6 -5 -7 -11 -3 -6 3 -3 -6 6 -20 10 -15 14 -26 9 -25 -20
3 -35 -2 -29 -10 3 -6 14 -8 25 -6 14 3 17 -1 13 -13 -5 -11 -8 -12 -11 -4 -3
10 -7 10 -20 0 -10 -8 -13 -9 -9 -1 4 6 3 15 -3 18 -8 5 -7 12 2 23 11 13 11
14 0 8 -9 -5 -17 2 -25 23 -11 31 -48 43 -62 21 -10 -16 -25 -1 -25 23 0 13 9
30 20 40 11 9 20 14 20 11 0 -3 8 -1 17 4 18 11 65 -16 56 -30z m5842 -135
c-2 -40 1 -53 12 -53 8 0 11 -4 8 -10 -3 -5 -1 -10 5 -10 14 0 69 -38 94 -65
10 -11 23 -19 28 -17 6 2 8 -5 4 -14 -5 -14 -4 -15 9 -4 12 10 16 9 21 -4 4
-11 13 -15 25 -11 11 4 19 2 19 -4 0 -5 9 -8 20 -6 11 2 23 -1 26 -7 4 -6 3
-8 -3 -5 -6 4 -16 1 -22 -7 -12 -14 -35 -15 -64 -2 -12 6 -16 15 -12 30 5 18
4 19 -5 4 -11 -19 -44 -13 -33 6 4 7 2 7 -8 -1 -28 -23 -165 116 -152 154 2 7
-5 22 -16 34 -17 18 -23 20 -36 9 -8 -7 -12 -16 -9 -21 3 -5 1 -9 -5 -9 -6 0
-13 -16 -17 -35 -7 -39 -7 -39 -35 -25 -19 11 -27 60 -9 60 5 0 7 6 4 14 -3 8
4 24 15 35 12 12 18 21 14 21 -5 1 3 7 16 14 19 11 30 10 66 -3 l42 -15 -2
-53z m-6378 -113 c-3 -12 1 -21 12 -23 9 -3 5 -5 -10 -6 -20 -1 -28 5 -31 22
-3 17 0 23 15 24 14 2 18 -3 14 -17z m6813 -45 c15 -9 12 -51 -5 -65 -8 -6
-13 -15 -12 -18 1 -4 -7 -22 -18 -40 -19 -32 -53 -41 -47 -12 3 11 0 11 -13 0
-13 -11 -15 -10 -9 4 3 9 11 16 16 16 6 0 7 7 4 16 -4 11 -2 15 8 11 10 -4 13
-1 10 8 -3 7 -1 22 5 34 9 16 8 21 -9 26 -16 5 -17 9 -7 20 12 13 56 13 77 0z
m-6795 -18 c1 -7 6 -11 13 -9 18 3 15 -15 -4 -22 -8 -3 -12 -2 -9 4 3 6 2 10
-4 10 -5 0 -9 9 -8 20 1 20 12 17 12 -3z m5334 -63 c-7 -8 -6 -13 3 -16 7 -3
8 -7 3 -10 -18 -11 -33 16 -23 42 7 20 11 22 18 10 5 -9 5 -19 -1 -26z m-5292
9 c0 -9 -4 -10 -14 -2 -7 6 -13 12 -13 14 0 1 6 2 13 2 8 0 14 -6 14 -14z
m930 -68 c0 -7 -6 -12 -14 -12 -7 0 -13 4 -13 9 0 5 -5 6 -12 2 -6 -4 -8 -3
-5 2 8 14 44 12 44 -1z m5333 -325 c0 -5 -5 -10 -11 -10 -5 0 -7 5 -4 10 3 6
8 10 11 10 2 0 4 -4 4 -10z m47 4 c-3 -3 -12 -4 -19 -1 -8 3 -5 6 6 6 11 1 17
-2 13 -5z m-12 -23 c-9 -8 -36 -10 -30 -2 2 4 11 8 20 8 8 0 13 -3 10 -6z
m-20 -49 c-3 -3 -11 0 -18 7 -9 10 -8 11 6 5 10 -3 15 -9 12 -12z m338 -1735
c4 3 7 -1 7 -10 0 -22 -3 -21 -26 5 -12 14 -13 18 -3 10 9 -6 19 -9 22 -5z
m-6717 -2269 c4 -7 3 -8 -4 -4 -7 4 -12 2 -12 -5 0 -7 -3 -10 -6 -6 -6 5 3 27
11 27 2 0 7 -5 11 -12z m7 -32 c4 -10 1 -13 -8 -9 -8 3 -12 9 -9 14 7 12 11
11 17 -5z m-1 -181 c5 -6 8 -6 8 2 0 21 60 1 78 -27 16 -26 2 -25 -33 2 -17
14 -30 18 -32 11 -5 -13 -43 -5 -43 9 0 6 -7 7 -16 4 -9 -3 -12 -2 -9 4 8 12
37 9 47 -5z m6740 -94 c24 -1 88 -59 100 -90 25 -68 32 -228 9 -255 -9 -11
-29 -16 -61 -16 -25 0 -50 -3 -54 -7 -3 -4 -13 -8 -21 -9 -8 -1 -29 -9 -46
-18 -41 -20 -79 -21 -79 -1 0 8 6 15 14 15 8 0 21 7 30 15 8 9 17 15 18 14 2
-2 14 1 28 5 39 13 100 16 100 5 0 -5 7 -9 16 -9 14 0 16 8 10 52 -4 28 -10
57 -14 62 -3 6 -5 24 -3 39 1 15 -2 34 -8 41 -6 7 -9 23 -6 36 5 23 -12 66
-22 56 -4 -3 -13 -1 -20 6 -8 6 -37 12 -64 12 -39 1 -54 -3 -65 -18 -8 -11
-14 -16 -14 -12 0 4 -13 -2 -29 -13 -18 -13 -28 -16 -27 -9 5 29 27 56 56 68
16 7 30 17 30 23 0 6 3 8 6 5 3 -3 17 -2 32 2 15 4 36 6 47 5 11 -2 28 -4 37
-4z m809 -148 c13 -16 12 -17 -3 -4 -10 7 -18 15 -18 17 0 8 8 3 21 -13z m-18
-38 c-3 -9 -8 -14 -10 -11 -3 3 -2 9 2 15 9 16 15 13 8 -4z m-7563 -40 c0 -4
-21 -8 -47 -7 -65 0 -71 2 -48 12 24 11 95 7 95 -5z m7525 -24 c3 -5 0 -13 -6
-17 -7 -4 -9 -3 -5 4 3 5 0 13 -6 15 -9 4 -10 6 -1 6 6 1 14 -3 18 -8z m-7
-45 c14 5 14 4 2 -4 -18 -13 -30 -6 -29 16 1 16 2 16 6 0 3 -11 11 -15 21 -12z
m-25 -30 c4 -10 1 -13 -9 -9 -7 3 -14 9 -14 14 0 14 17 10 23 -5z m-45 -81
c-3 -3 -9 2 -12 12 -6 14 -5 15 5 6 7 -7 10 -15 7 -18z m-21 -20 c-4 -8 -2
-17 3 -20 6 -4 10 0 10 7 0 10 3 9 10 -2 5 -8 5 -19 1 -25 -5 -5 -7 -18 -6
-28 2 -9 -1 -15 -6 -11 -5 3 -12 -2 -15 -10 -3 -9 -10 -13 -15 -10 -5 3 -9 1
-9 -5 0 -6 -7 -8 -15 -5 -8 4 -15 13 -15 21 0 8 5 11 12 7 6 -4 8 -3 5 4 -9
13 2 44 13 37 5 -3 7 -14 5 -25 -3 -14 1 -17 13 -13 11 5 12 8 3 11 -8 3 -7 8
6 19 15 13 16 14 1 9 -18 -5 -33 20 -17 29 5 4 7 11 4 16 -4 5 -1 9 5 9 7 0
10 -7 7 -15z m-1781 -520 c-3 -8 4 -17 15 -20 11 -4 18 -9 16 -12 -11 -10 -46
18 -44 36 0 11 5 17 10 14 4 -3 6 -11 3 -18z m-20 -41 c1 -9 0 -13 -4 -10 -3
4 -7 14 -8 22 -1 9 0 13 4 10 3 -4 7 -14 8 -22z m88 -50 c3 -8 2 -12 -4 -9 -6
3 -10 10 -10 16 0 14 7 11 14 -7z m54 -49 c-6 -14 -13 -23 -15 -21 -5 5 15 46
22 46 3 0 -1 -11 -7 -25z m-64 -13 c3 -5 -1 -9 -9 -9 -8 0 -12 4 -9 9 3 4 7 8
9 8 2 0 6 -4 9 -8z m-4549 -52 c-3 -5 -12 -10 -18 -10 -7 0 -6 4 3 10 19 12
23 12 15 0z m-55 -40 c-13 -8 -12 -11 5 -25 20 -16 20 -16 -1 -6 -12 6 -25 7
-29 3 -4 -4 -2 3 4 16 6 12 17 22 24 22 7 0 6 -4 -3 -10z"/>
<path d="M8360 8766 c0 -2 8 -10 18 -17 15 -13 16 -12 3 4 -13 16 -21 21 -21
13z"/>
<path d="M1799 4273 c-13 -16 -12 -17 4 -4 9 7 17 15 17 17 0 8 -8 3 -21 -13z"/>
<path d="M1810 4221 c0 -6 4 -13 10 -16 6 -3 7 1 4 9 -7 18 -14 21 -14 7z"/>
<path d="M7476 3073 c-6 -14 -5 -15 5 -6 7 7 10 15 7 18 -3 3 -9 -2 -12 -12z"/>
<path d="M7467 2959 c7 -7 15 -10 18 -7 3 3 -2 9 -12 12 -14 6 -15 5 -6 -5z"/>
<path d="M7530 2961 c0 -6 4 -13 10 -16 6 -3 7 1 4 9 -7 18 -14 21 -14 7z"/>
<path d="M2935 2920 c3 -5 8 -10 11 -10 2 0 4 5 4 10 0 6 -5 10 -11 10 -5 0
-7 -4 -4 -10z"/>
<path d="M7550 2889 c0 -5 5 -7 10 -4 6 3 10 8 10 11 0 2 -4 4 -10 4 -5 0 -10
-5 -10 -11z"/>
<path d="M2888 2878 c11 -14 10 -18 -6 -27 -11 -6 -23 -7 -27 -3 -5 4 -5 1 -1
-6 5 -8 13 -9 24 -3 9 5 21 9 25 9 18 1 16 10 -5 28 -16 14 -19 14 -10 2z"/>
<path d="M7595 2830 c-3 -5 -1 -10 4 -10 6 0 11 5 11 10 0 6 -2 10 -4 10 -3 0
-8 -4 -11 -10z"/>
<path d="M2795 2790 c3 -5 8 -10 11 -10 2 0 4 5 4 10 0 6 -5 10 -11 10 -5 0
-7 -4 -4 -10z"/>
<path d="M2775 2740 c-3 -5 -1 -10 4 -10 6 0 11 5 11 10 0 6 -2 10 -4 10 -3 0
-8 -4 -11 -10z"/>
<path d="M2757 2670 c-9 -11 -13 -20 -7 -20 5 0 14 9 20 20 6 11 9 20 8 20 -2
0 -11 -9 -21 -20z"/>
<path d="M2753 2618 c-2 -16 1 -17 13 -8 17 15 17 17 1 23 -8 3 -14 -3 -14
-15z"/>
</g>
</svg>
